<svg xmlns="http://www.w3.org/2000/svg" viewBox="0 0 458.16 379.28"><defs><style>.cls-1{fill:#3a5225;}.cls-1,.cls-11,.cls-13,.cls-15,.cls-16,.cls-17,.cls-2,.cls-3,.cls-4,.cls-8{stroke:#231f20;stroke-miterlimit:10;}.cls-2{fill:#587737;}.cls-3{fill:none;}.cls-14,.cls-4{fill:#f9d367;}.cls-5{fill:#e2b137;}.cls-6{fill:#e09436;}.cls-7{fill:#231f20;}.cls-10,.cls-8{fill:#fff;}.cls-9{fill:#c7e8ea;}.cls-11,.cls-12{fill:#ed2024;}.cls-13,.cls-15{fill:#fee000;}.cls-13{stroke-width:0.25px;}.cls-16{fill:#95c93d;}.cls-17{fill:#69cce2;}.cls-18{fill:#ddb245;}</style></defs><title>logo</title><g id="Cape"><path class="cls-1" d="M174.38,379.23c5.23-1,10.28-1.41,11.86.51,7.5,3.23,3,2.52,7.2,2.52,5.78-3.36,8.62-4.42,8.82-.88,0,4.78,5.48,5.31,8.11,4.07s13.92-14.62,13.92-14.62V340.71C214.79,346.48,193.22,360.49,174.38,379.23Z" transform="translate(-23.46 -78.5)"/><path class="cls-2" d="M224.29,340.71l11.87-9.35-2-17.56s-42.45,23.89-45.49,26.37c-1.23,2-8.31,9-16,20.16l-5.88,4.25-6.49,18.57a119.66,119.66,0,0,1,14.1-3.92C193.22,360.49,214.79,346.48,224.29,340.71Z" transform="translate(-23.46 -78.5)"/><path class="cls-2" d="M224.29,340.71l11.87-9.35-2-17.56s-42.45,23.89-45.49,26.37c-1.23,2-8.31,9-16,20.16l-5.88,4.25-6.49,18.57a119.66,119.66,0,0,1,14.1-3.92C193.22,360.49,214.79,346.48,224.29,340.71Z" transform="translate(-23.46 -78.5)"/><path class="cls-2" d="M224.29,340.71l11.87-9.35-2-17.56s-42.45,23.89-45.49,26.37c-1.23,2-8.31,9-16,20.16l-5.88,4.25-6.49,18.57a119.66,119.66,0,0,1,14.1-3.92C193.22,360.49,214.79,346.48,224.29,340.71Z" transform="translate(-23.46 -78.5)"/><path class="cls-2" d="M224.29,340.71l11.87-9.35-2-17.56s-42.45,23.89-45.49,26.37c-1.23,2-8.31,9-16,20.16l-5.88,4.25-6.49,18.57a119.66,119.66,0,0,1,14.1-3.92C193.22,360.49,214.79,346.48,224.29,340.71Z" transform="translate(-23.46 -78.5)"/><line class="cls-3" x1="172.1" y1="266.12" x2="143.31" y2="286.17"/></g><g id="body"><path class="cls-4" d="M307.73,238.23s5.79,23.37-4.48,50c-3.57,9.26-29,32.85-31.81,38.25-8.26,16,13.66,13.42,16.27,30.8,3.42,22.81-7.13,25.11-7.13,25.11L257.39,386l-27.87-2.54L220.05,386s-7.74,5.33-17.62-34.4c-.85-3.42-3.65-3.52-1.3-6.92,6.23-9,24.73-21.47,32-32.18,3-4.39-9.41-8.67-17.54-23.43-11.15-20.25-8.69-45.35-8.69-45.35s14.09-6.82,22.8-8.34,21.92-8.41,34.23.43c2.39,1.72,6.15-.66,7.81-1.63C298,218.95,307.73,238.23,307.73,238.23Z" transform="translate(-23.46 -78.5)"/></g><g id="Layer_8" data-name="Layer 8"><path class="cls-5" d="M271.6,242a124.37,124.37,0,0,1,5.16,17.7,89.54,89.54,0,0,1,1.91,18.36,67.28,67.28,0,0,1-.7,9.24,59.52,59.52,0,0,1-2,9.05A57.28,57.28,0,0,1,267.84,313,70.52,70.52,0,0,1,255,326.35,27.78,27.78,0,0,0,249,333a12.25,12.25,0,0,0-.66,12.76,43.82,43.82,0,0,0,2.39,3.89,47.12,47.12,0,0,1,4.19,8.26,64.52,64.52,0,0,1,3.94,18,66.73,66.73,0,0,0-4.41-17.8,46.55,46.55,0,0,0-4.26-8.09,44.3,44.3,0,0,1-2.49-3.92,13.86,13.86,0,0,1-1.52-4.46,13.63,13.63,0,0,1,2.07-9.08,28.65,28.65,0,0,1,6.22-6.93c2.34-2,4.63-4,6.74-6.22a62.16,62.16,0,0,0,5.85-7,56.33,56.33,0,0,0,8.07-16.31,58.64,58.64,0,0,0,2-8.91,73.43,73.43,0,0,0,.79-9.12,89.86,89.86,0,0,0-1.63-18.26A132.82,132.82,0,0,0,271.6,242Z" transform="translate(-23.46 -78.5)"/><path class="cls-5" d="M237.83,257a243.82,243.82,0,0,1,3.93,25.07c.44,4.21.72,8.44.82,12.68a107.78,107.78,0,0,1-.38,12.73,52.69,52.69,0,0,1-1,6.32,23.92,23.92,0,0,1-2.07,6.11,8.32,8.32,0,0,1-.92,1.4,6.64,6.64,0,0,1-.59.63l-.59.53a17.26,17.26,0,0,0-2.09,2.27,9.58,9.58,0,0,0-2.12,5.58,9.85,9.85,0,0,0,2.07,5.65,31,31,0,0,1,3,5.65A41.61,41.61,0,0,1,240.63,354a44,44,0,0,0-3.19-12.19,30.35,30.35,0,0,0-3.06-5.48,10.57,10.57,0,0,1-2.33-6,10.2,10.2,0,0,1,2.23-6.11,18.16,18.16,0,0,1,2.18-2.41l.59-.54a5.71,5.71,0,0,0,.49-.53,7.42,7.42,0,0,0,.81-1.26,23.06,23.06,0,0,0,1.94-5.88,61.91,61.91,0,0,0,.93-6.21,142.25,142.25,0,0,0-.2-25.24C240.33,273.73,239.17,265.35,237.83,257Z" transform="translate(-23.46 -78.5)"/><path class="cls-5" d="M284.66,286.67q-2,7.74-4.54,15.33c-.83,2.53-1.78,5-2.79,7.5a72.15,72.15,0,0,1-3.38,7.29,29.39,29.39,0,0,1-2.18,3.42,10.65,10.65,0,0,1-3,2.87,10,10,0,0,0-2.83,2.53,5.38,5.38,0,0,0-1.08,3.47,11.37,11.37,0,0,0,1.17,3.67,21.59,21.59,0,0,1,1.11,3.88,28.5,28.5,0,0,1,.24,8,30.73,30.73,0,0,0-.72-7.89,21.54,21.54,0,0,0-1.22-3.74,11.91,11.91,0,0,1-1.36-3.85,5.93,5.93,0,0,1,1.14-4,10.89,10.89,0,0,1,3-2.79,9.72,9.72,0,0,0,2.7-2.68,29,29,0,0,0,2.07-3.33,109.54,109.54,0,0,0,6.32-14.57c.93-2.49,1.81-5,2.67-7.51Z" transform="translate(-23.46 -78.5)"/><path class="cls-6" d="M253.35,248.66a70.89,70.89,0,0,1,4.59,8.32,69.56,69.56,0,0,1,3.53,8.84,45.58,45.58,0,0,1,2.08,9.31,23.41,23.41,0,0,1-.64,9.47c.09-.79.18-1.57.29-2.35s0-1.57,0-2.35a17.94,17.94,0,0,0-.14-2.34l-.11-1.17c-.05-.39-.13-.77-.2-1.16a58.88,58.88,0,0,0-2.27-9.11c-.94-3-2.08-5.93-3.28-8.84-.59-1.46-1.23-2.9-1.89-4.33S254,250.09,253.35,248.66Z" transform="translate(-23.46 -78.5)"/><path class="cls-6" d="M261,325.45a36.56,36.56,0,0,0-2.32,6.49,21.37,21.37,0,0,0-.69,6.76,18.58,18.58,0,0,0,.54,3.33,14.6,14.6,0,0,0,.52,1.58,15,15,0,0,0,.79,1.48c1.17,2,2.44,3.89,3.7,5.82l3.76,5.81c1.25,1.94,2.56,3.85,3.66,5.9a13.63,13.63,0,0,1,2,6.69,13.21,13.21,0,0,1-2,6.63,13.62,13.62,0,0,0,1.46-6.62,13.07,13.07,0,0,0-2.22-6.32c-2.39-3.9-5.08-7.67-7.59-11.55-1.24-2-2.48-3.89-3.65-5.91a15.74,15.74,0,0,1-.82-1.58,15.16,15.16,0,0,1-.54-1.71,16,16,0,0,1-.47-3.51,21.77,21.77,0,0,1,1-6.92A32.36,32.36,0,0,1,261,325.45Z" transform="translate(-23.46 -78.5)"/></g><g id="Cape_Tie" data-name="Cape Tie"><path class="cls-1" d="M266.4,335.44s6.48,6.18,7.59,13.28c4.69,6.59,9.42,8.62,9.42,8.62s-24.79-4-22.44-15.71C263.27,330.15,266.4,335.44,266.4,335.44Z" transform="translate(-23.46 -78.5)"/><polygon class="cls-7" points="241.12 258.37 245.27 266.55 240.26 258.87 241.12 258.37"/><path class="cls-1" d="M253.6,334s-3.55,8.22-1.8,15.18c-1.75,7.9-5.31,11.61-5.31,11.61s21.28-13.33,14.53-23.22C254.42,327.93,253.6,334,253.6,334Z" transform="translate(-23.46 -78.5)"/><polygon class="cls-7" points="236.64 257.44 233.26 262.84 235.75 256.98 236.64 257.44"/><path class="cls-1" d="M233.16,312.52s-9.51,4.43-8.24,10.94c.52,2.65,6.76,7.58,10.7,8.86,6.75,2.25,23.74,3.54,23.74,3.54s-1.15-2.75,0-3.75S237.42,324,233.16,312.52Z" transform="translate(-23.46 -78.5)"/><path class="cls-1" d="M259.37,332.11l12.74-6.66s-.67,9.41-5.42,10.41l-2.89-2.63Z" transform="translate(-23.46 -78.5)"/><ellipse class="cls-1" cx="238.42" cy="256.48" rx="4.49" ry="3.63"/></g><g id="hands"><path class="cls-8" d="M184.48,345.18c.22,1.47,2.6,2.23,5.31,1.71s4.74-2.13,4.52-3.6-2.6-2.23-5.31-1.71S184.26,343.72,184.48,345.18Z" transform="translate(-23.46 -78.5)"/><path class="cls-3" d="M217.74,328.72S184.46,315.65,189.15,342" transform="translate(-23.46 -78.5)"/><path class="cls-8" d="M206.18,365s-1.12,1.43-3.36.32c-1.65,2.16-4,2.91-6.53,3.62a11.32,11.32,0,0,1-3.17-.37c-1.71,1.85-10,2.34-10,2.34s-9.65-3-10.75-6.23c-.66-2-2.41-4.37.81-6.06a6.18,6.18,0,0,1,6.31.43s-8-17.52,21.66-14.34Z" transform="translate(-23.46 -78.5)"/><polygon class="cls-7" points="156.35 280.17 158.89 283.12 155.68 280.92 156.35 280.17"/></g><g id="Face"><path class="cls-8" d="M261.68,272.59c-1-10.84-9.41-18.91-18.7-18-6.5.62-11.72,5.48-13.91,12.06a43,43,0,0,0-.35,12.88,20.21,20.21,0,0,0,8.12,11.75h16.9C259.13,287.56,262.43,280.43,261.68,272.59Z" transform="translate(-23.46 -78.5)"/><ellipse class="cls-9" cx="247.6" cy="278.37" rx="12.78" ry="10.25" transform="translate(-108.39 367.87) rotate(-75.15)"/><ellipse cx="245.18" cy="277.46" rx="7.4" ry="7.2" transform="translate(-48.82 -53.84) rotate(-5.48)"/><ellipse class="cls-10" cx="242.21" cy="275.98" rx="4.38" ry="4.27" transform="translate(-48.69 -54.13) rotate(-5.48)"/><path class="cls-8" d="M237.18,305.44H277l-8,14.8c-16.94,0-11.89.46-16.94,0C247.15,319.79,237.18,305.44,237.18,305.44Z" transform="translate(-23.46 -78.5)"/><polygon class="cls-7" points="221.86 233.94 240.06 234.44 221.86 234.94 221.86 233.94"/><path class="cls-8" d="M229.08,266.62a22.31,22.31,0,0,0-1,9.19,23,23,0,0,0,.67,3.69,43,43,0,0,1,.35-12.88Z" transform="translate(-23.46 -78.5)"/><path class="cls-8" d="M228.72,279.5a36.83,36.83,0,0,0,3.35,11.75h4.77A20.21,20.21,0,0,1,228.72,279.5Z" transform="translate(-23.46 -78.5)"/><path class="cls-8" d="M262.13,274.25c0-15.09-7.55-27.33-16.86-27.33-7.68,0-14.15,8.32-16.19,19.7,2.19-6.58,7.41-11.43,13.91-12.06,9.29-.89,17.66,7.18,18.7,18,.75,7.84-2.55,15-7.94,18.66h4.71A39,39,0,0,0,262.13,274.25Z" transform="translate(-23.46 -78.5)"/><path class="cls-8" d="M301.66,272.59c-1-10.84-9.41-18.91-18.7-18a14.58,14.58,0,0,0-2,.34c-4.34,9.86-8.66,23.28-8.24,32.64a18.44,18.44,0,0,0,4.06,3.71h16.9C299.11,287.56,302.41,280.43,301.66,272.59Z" transform="translate(-23.46 -78.5)"/><ellipse class="cls-9" cx="287.58" cy="278.37" rx="12.78" ry="10.25" transform="translate(-78.65 406.52) rotate(-75.15)"/><ellipse cx="285.16" cy="277.46" rx="7.4" ry="7.2" transform="translate(-48.64 -50.02) rotate(-5.48)"/><ellipse class="cls-10" cx="282.19" cy="275.98" rx="4.38" ry="4.27" transform="translate(-48.51 -50.31) rotate(-5.48)"/><path class="cls-8" d="M285.24,246.92c-.11,0-.23,0-.32,0-2.11,1.28-2.56,4.88-3.92,8a14.58,14.58,0,0,1,2-.34c9.29-.89,17.66,7.18,18.7,18,.75,7.84-2.55,15-7.94,18.66h4.71a39,39,0,0,0,3.67-17C302.11,259.15,294.56,246.92,285.24,246.92Z" transform="translate(-23.46 -78.5)"/><path class="cls-3" d="M271.45,271.55s-4.49,16.58,1.84,20.82" transform="translate(-23.46 -78.5)"/><path class="cls-3" d="M262.57,295.76l14.64-4.85a6.28,6.28,0,0,1-4.13,7.81l-5.37,2.78L260,296" transform="translate(-23.46 -78.5)"/><polygon class="cls-7" points="253.55 226.44 259.25 226.94 253.55 227.44 253.55 226.44"/></g><g id="Layer_9" data-name="Layer 9"><polygon class="cls-11" points="35.2 344.04 20.65 378.38 100.72 347.28 91.03 322.35 81.35 297.43 1.28 328.53 35.2 344.04"/><polygon class="cls-11" points="422.96 344.04 437.51 378.38 357.44 347.28 367.13 322.35 376.81 297.43 456.88 328.53 422.96 344.04"/><path class="cls-12" d="M398,423.36a790,790,0,0,0-296.07,0l-50.82-48.9a1061.25,1061.25,0,0,1,397.71,0Z" transform="translate(-23.46 -78.5)"/><path class="cls-3" d="M398,423.36a790,790,0,0,0-296.07,0l-50.82-48.9a1061.25,1061.25,0,0,1,397.71,0Z" transform="translate(-23.46 -78.5)"/><path class="cls-13" d="M129.42,384.3l-1,.16q0-.45,0-.66t-.07-.51a3.1,3.1,0,0,0-.37-1.15l-1-.87c-.75-.66-2.27-.8-4.58-.41l-2.32.4q2.13,11.73,4.25,23.46.52,3,1.27,3.7c.5.44,1.61.59,3.35.46l.14.84q-5.83,1-11.65,2l-.15-.84a6.36,6.36,0,0,0,3-1.49q.58-.76.1-3.46-2.24-12-4.48-24-4.41.79-8.82,1.63.24-3.06.48-6.13l1-.19q0,.22.05.46t.06.36a1.7,1.7,0,0,0,.82,1.36,2.72,2.72,0,0,1,.68.39c.66.68,2.2.79,4.63.35q7.71-1.38,15.44-2.61Q129.83,381,129.42,384.3Z" transform="translate(-23.46 -78.5)"/><path class="cls-13" d="M165.36,404.79q-5.78.67-11.56,1.43l-.16-1.21q2.32-.6,2.83-1.34t.2-3.22l-.36-2.83q-6.47.82-12.92,1.76l.41,2.82a12.13,12.13,0,0,0,.43,2,2.27,2.27,0,0,0,.64,1.06q.66.55,3.08.5l.17,1.21q-5.77.81-11.53,1.71l-.19-1.21q2.4-.67,2.84-1.41t0-3.77l-.49-3.24q-.12-1.3-.21-2.59a46,46,0,0,1,0-5.86,20.9,20.9,0,0,1,1.22-6.21,25.16,25.16,0,0,1,2.79-5.37,27.25,27.25,0,0,1,4.31-4.56,28.52,28.52,0,0,1,5.08,3.35,26.86,26.86,0,0,1,3.92,4.38,22,22,0,0,1,2.36,5.16q1,2.87,1.84,6.06l.72,2.94.36,3q.37,3,1,3.64c.41.4,1.45.6,3.11.6Zm-9.42-10.18q-.14-1.1-.44-2.7-.47-2.4-1-4.28a19.41,19.41,0,0,0-1.33-3.82,29.34,29.34,0,0,0-2.63-4.37,22.62,22.62,0,0,0-3.56-3.65,19.26,19.26,0,0,0-2.85,4.47,28.18,28.18,0,0,0-1.46,5,20.35,20.35,0,0,0-.34,4.36q0,2,.21,3.68t.39,3.1Q149.44,395.44,155.94,394.62Zm.2,1.58-.1-.81q-6.49.82-13,1.76l.12.81Q149.66,397,156.14,396.19Z" transform="translate(-23.46 -78.5)"/><path class="cls-13" d="M199.68,401.25q-5.46.37-10.91.83l0-.48c1.56-.29,2.53-.72,2.91-1.33a3.47,3.47,0,0,0,.37-1.47,15.65,15.65,0,0,0,0-2.52l-1.7-21.69q-4,3.07-7.9,6.18l2.38,26.55q-.83,2.3-1.65,4.6L180.27,381q-4.64-2.38-9.33-4.71l2.13,20.42q.41,4,1.54,5.08a4.43,4.43,0,0,0,2.89.82l0,.48q-5.91.58-11.82,1.27l-.06-.48c1.59-.42,2.59-1,3-1.76s.49-2.41.21-5l-2.11-19.24q-.29-2.66-1.16-3.36a2.66,2.66,0,0,0-1.26-.56,6.46,6.46,0,0,0-2,0l-.06-.52q4.73-.55,9.47-1,4.74,2.51,9.42,5.08,4.31-3.39,8.7-6.73,3.85-.3,7.7-.57l0,.52a5.32,5.32,0,0,0-1.84.41,2.5,2.5,0,0,0-1.06.82q-.66.88-.47,3.45l1.55,21.14a11.05,11.05,0,0,0,.34,2.16,3,3,0,0,0,.61,1.23,5.11,5.11,0,0,0,2.93.82Z" transform="translate(-23.46 -78.5)"/><path class="cls-13" d="M228.17,400.24q-5.81.17-11.62.43l-.06-1.22a5.24,5.24,0,0,0,2.93-1.09q.58-.69.48-3.19l-.11-2.85q-6.5.26-13,.64l.16,2.84a12.14,12.14,0,0,0,.26,2,2.27,2.27,0,0,0,.54,1.11q.61.6,3,.76l.06,1.22q-5.81.31-11.61.71l-.08-1.22c1.63-.31,2.61-.69,2.95-1.16s.44-1.72.3-3.76l-.21-3.27q0-1.3,0-2.6a46,46,0,0,1,.5-5.84,20.93,20.93,0,0,1,1.74-6.09,25.15,25.15,0,0,1,3.24-5.11,27.2,27.2,0,0,1,4.67-4.17,28.44,28.44,0,0,1,4.76,3.78,26.88,26.88,0,0,1,3.53,4.71,22,22,0,0,1,1.91,5.34q.73,2.94,1.31,6.2l.46,3,.1,3q.1,3.06.67,3.71t3,.86Zm-8.5-10.95q0-1.1-.21-2.73-.26-2.44-.58-4.35a19.45,19.45,0,0,0-1-3.92,29.4,29.4,0,0,0-2.24-4.58,22.62,22.62,0,0,0-3.23-3.95,19.25,19.25,0,0,0-3.22,4.2,28.23,28.23,0,0,0-1.88,4.84,20.38,20.38,0,0,0-.71,4.32q-.15,2-.11,3.68t.12,3.12Q213.15,389.56,219.67,389.29Zm.06,1.59,0-.81q-6.52.26-13,.64l0,.81Q213.22,391.14,219.74,390.88Z" transform="translate(-23.46 -78.5)"/><path class="cls-13" d="M228.36,399.19a5.68,5.68,0,0,0,2.86-1q.65-.72.59-3.39l-.51-21.19a5.41,5.41,0,0,0-.76-3.26c-.47-.52-1.48-.82-3-.91l0-.89q6-.17,11.92-.25v.89a6.78,6.78,0,0,0-1.89.25,3.27,3.27,0,0,0-1.22.65q-.77.71-.72,3.12l.42,22.88a2.8,2.8,0,0,0,.24,1.24,1.34,1.34,0,0,0,1,.56l1,.08,1.9,0c3.6,0,6-.4,7.31-1.1s2.5-2.48,3.69-5.35h1q-1,4.12-2,8.25-10.88,0-21.75.31Z" transform="translate(-23.46 -78.5)"/><path class="cls-13" d="M253.08,398.89A5.68,5.68,0,0,0,256,398q.68-.69.71-3.37l.2-21.2a5.4,5.4,0,0,0-.65-3.28c-.45-.53-1.45-.87-3-1v-.89q11.89.06,23.78.48-1.13,3.38-2.24,6.77l-1.06,0a15.21,15.21,0,0,0,.18-1.78,3.59,3.59,0,0,0-.48-2.32,3.26,3.26,0,0,0-1.78-.74,19.68,19.68,0,0,0-3.34-.33l-5.71-.12q-.9,0-1.13.32a2.42,2.42,0,0,0-.24,1.25L261,382.36q5.1.08,10.2.22l-3.88,1.78-6.35-.12L260.81,396q0,1.39.73,1.7a23.72,23.72,0,0,0,4.57.34,13.74,13.74,0,0,0,6.09-.88q2-1,3.73-5l1.14,0q-1.08,4-2.13,8-10.92-.38-21.85-.43Z" transform="translate(-23.46 -78.5)"/><path class="cls-13" d="M311.11,397.42q1.74,1.92,4.48,4.57,1.79,1.76,4.24,4c1.23,1.16,1.85,1.74,1.86,1.74a3,3,0,0,0,1.06.84l1.3.61a2.76,2.76,0,0,0,1.22.35l1.1.16-.09.85q-3.48-.37-7-.71l-2-1.84q-2.45-2.27-4.55-4.28-3-2.87-4.83-4.82t-4.52-5.19q-2.1-2.52-4-4.86l-1.73-2.17-1.16.76L296,396q-.17,2.63.46,3.41a5.48,5.48,0,0,0,2.92,1.12l-.06.85q-5.7-.39-11.41-.69l0-.85c1.65-.07,2.69-.36,3.12-.87s.7-1.77.81-3.79l1.18-20.6q.15-2.57-.51-3.35c-.4-.51-1.41-.89-3-1.12l0-.89q6,.31,12,.72l-.06.89a7,7,0,0,0-2,.11,2.49,2.49,0,0,0-1.23.61q-.77.73-.93,3.28l-.61,9.75q4.13-3.54,6.68-5.92c3.14-3,4.77-4.89,4.84-5.78a1.22,1.22,0,0,0-.66-1.31,5.63,5.63,0,0,0-.9-.28,8.07,8.07,0,0,0-1.2-.17l.07-.89q5.51.4,11,.89l-.07.77a7.71,7.71,0,0,0-3.22.6,15.78,15.78,0,0,0-3.46,2.71q-4.71,4.41-9.31,8.87.87,1.19,1.76,2.35,1.87,2.46,4.14,5.32Q309.18,395.29,311.11,397.42Z" transform="translate(-23.46 -78.5)"/><path class="cls-13" d="M317.55,402a6.12,6.12,0,0,0,3.29-.58q.78-.58,1.05-3.32L324,377q.25-2.58-.43-3.43a2.72,2.72,0,0,0-1.16-.76,7.63,7.63,0,0,0-2.08-.44l.08-.89q6.22.58,12.43,1.26l-.1.89a7.47,7.47,0,0,0-2.08,0,3.06,3.06,0,0,0-1.33.51q-.84.69-1.11,3.27L326,398.55q-.28,2.72.37,3.49a6.58,6.58,0,0,0,3.1,1.21l-.09.85q-6-.65-11.92-1.21Z" transform="translate(-23.46 -78.5)"/><path class="cls-13" d="M362,381.77a5.27,5.27,0,0,0-1.88,0,2.5,2.5,0,0,0-1.21.58,15.06,15.06,0,0,0-1.22,1.31l-.87,1-3.9,27.17q-1.86,2.29-3.69,4.58l4.53-32.68q-6-3-12.05-5.84l-2.48,20.29q-.48,4,.37,5.3a4.44,4.44,0,0,0,2.63,1.44l-.06.48q-5.9-.75-11.8-1.41l.05-.48c1.64-.05,2.75-.4,3.33-1s1-2.24,1.32-4.78l2.24-19.23q.31-2.66-.38-3.54a2.66,2.66,0,0,0-1.11-.83,6.45,6.45,0,0,0-2-.5l.06-.52q4.74.53,9.47,1.11,5.54,2.92,11,5.92,3.86.55,7.71,1.13Z" transform="translate(-23.46 -78.5)"/><path class="cls-13" d="M383.42,380.25a18.28,18.28,0,0,0,2,.9,10.16,10.16,0,0,0,1.26.45,2.18,2.18,0,0,0,1.42-.11,5.62,5.62,0,0,0,1.22-1l.92.17q-2.17,4.69-4.31,9.39l-.94-.17a13.77,13.77,0,0,0-.27-5.29,5.12,5.12,0,0,0-2-2.61,8.79,8.79,0,0,0-3.57-1.41,9.2,9.2,0,0,0-7.59,2.26c-2.41,2-4,5.57-4.84,10.83-.69,4.33-.23,7.86,1.32,10.61a9.15,9.15,0,0,0,6.61,4.86c.39.07.68.11.86.12l1.05,0a7.46,7.46,0,0,0,1.77-.2,5.24,5.24,0,0,0,1.94-.62,1.74,1.74,0,0,0,.58-1.12l1.36-7.49q.49-2.69-.07-3.48a2.65,2.65,0,0,0-1-.79,6.24,6.24,0,0,0-1.78-.55l.15-.88q5.21.92,10.41,1.91l-.17.87a4.49,4.49,0,0,0-1.25-.09,1.9,1.9,0,0,0-.87.28q-1,.57-1.4,2.85l-1.72,9.22c-.1.55-1.39,1.06-3.85,1.56a18.61,18.61,0,0,1-6.87.2,14,14,0,0,1-9.24-5.65c-2.5-3.43-3.41-7.63-2.65-12.61a17.88,17.88,0,0,1,5.38-10.7,12.89,12.89,0,0,1,11.58-3.4A15.11,15.11,0,0,1,383.42,380.25Z" transform="translate(-23.46 -78.5)"/></g><g id="Crown"><path class="cls-14" d="M261.79,234.43s3.45,1.81,9.81,7.6" transform="translate(-23.46 -78.5)"/><path class="cls-7" d="M262,234a29.14,29.14,0,0,1,2.59,1.83c.83.64,1.63,1.3,2.42,2,1.58,1.36,3.1,2.78,4.57,4.23-1.59-1.33-3.21-2.62-4.88-3.84-.83-.61-1.68-1.2-2.54-1.76a28.67,28.67,0,0,0-2.62-1.55Z" transform="translate(-23.46 -78.5)"/><path class="cls-15" d="M207.45,255.47s45.26-2,57.38-4.37c12.59-2.48,41.48-15.09,41.48-15.09V114l-33.24,82.29L227.28,91.8l-1.81,113.87-76.18-72.45Z" transform="translate(-23.46 -78.5)"/><ellipse class="cls-15" cx="149.28" cy="133.22" rx="11.02" ry="10.07" transform="translate(-46.38 -47.16) rotate(-11.14)"/><ellipse class="cls-15" cx="227.12" cy="89.11" rx="11.02" ry="10.07" transform="translate(-36.39 -32.95) rotate(-11.14)"/><ellipse class="cls-15" cx="306.32" cy="114" rx="11.02" ry="10.07" transform="translate(-39.71 -17.19) rotate(-11.14)"/><circle class="cls-11" cx="194.28" cy="159.91" r="7.08"/><circle class="cls-16" cx="233.64" cy="159.73" r="7.08"/><circle class="cls-17" cx="268.09" cy="149.83" r="7.08"/><path class="cls-7" d="M227.12,261.08l82.12-1.74,2,19s-9.17,34.57-39.19,12.88c-4.67-10.88-.58-20-.48-21,.37-4.18-2.87-1.13-5.7,15.78-1.42,3.73-8.87,8.53-12.55,10.21-6.85,3.11-23.1,5-28.53-9.53C213.16,261.38,227.12,261.08,227.12,261.08Z" transform="translate(-23.46 -78.5)"/><path class="cls-8" d="M328.58,326.7s1.92,4.43-1.47,6.33c-3.13,1.76-11.51,1.15-13.07-1.88,1.6,3.12-11.37,4.48-12.34-1.24-.66-2.42,0-3.52,0-3.52s-6-3.91,1.75-18.21c1.2-2,1.33-1.6,1.2-2s.41-.5-1.36-3.37c-1.32-2.12-.49-6.09,2.61-9.57,8.14-5.85,8.78,3.48,8.16,4.7a10.16,10.16,0,0,0-.63,5.3c.7,2.72.9.58,4.41,4.31C317.41,308.69,328.58,326.7,328.58,326.7Z" transform="translate(-23.46 -78.5)"/><path class="cls-8" d="M315.86,326.63c.39,2.56,4.34,3,8.89,3.39,9.39.86,7.87-3.32,7.48-5.88s-4.37-4.08-8.89-3.39S315.47,324.07,315.86,326.63Z" transform="translate(-23.46 -78.5)"/><path class="cls-8" d="M314.85,321c1,3.27,5.87,4.68,10.92,3.16s10.76-1,7.35-8.66c-1.39-3.12-5.87-4.68-10.92-3.16S313.87,317.71,314.85,321Z" transform="translate(-23.46 -78.5)"/><path class="cls-8" d="M311.21,312.87c1,3.27,6.3,4.55,11.89,2.87s9.79-3.14,6.64-8.93c-3.68-6.77-4.62-4.58-10.2-2.9S310.23,309.6,311.21,312.87Z" transform="translate(-23.46 -78.5)"/><path class="cls-18" d="M264.88,295.5l12.33-4.6a6.28,6.28,0,0,1-4.13,7.81l-5.37,2.78L260,296Z" transform="translate(-23.46 -78.5)"/><polyline class="cls-7" points="196.93 194.56 185.11 190.58 183.89 182.77 203.66 182.58 197.15 195.94"/><path class="cls-3" d="M283.8,347.78s12.49-5.22,19.77-15.43" transform="translate(-23.46 -78.5)"/><path class="cls-8" d="M305,327.4s-.77.19-3.31-1" transform="translate(-23.46 -78.5)"/></g></svg>